<?xml version="1.0" encoding="UTF-8" standalone="no"?>
<svg
   xmlns:dc="http://purl.org/dc/elements/1.1/"
   xmlns:cc="http://creativecommons.org/ns#"
   xmlns:rdf="http://www.w3.org/1999/02/22-rdf-syntax-ns#"
   xmlns:svg="http://www.w3.org/2000/svg"
   xmlns="http://www.w3.org/2000/svg"
   viewBox="0 0 64 64"
   height="64"
   width="64"
   xml:space="preserve"
   id="svg2"
   version="1.1"><metadata
     id="metadata8"><rdf:RDF><cc:Work
         rdf:about=""><dc:format>image/svg+xml</dc:format><dc:type
           rdf:resource="http://purl.org/dc/dcmitype/StillImage" /></cc:Work></rdf:RDF></metadata><defs
     id="defs6" /><g
     transform="matrix(1.3333333,0,0,-1.3333333,0,64)"
     id="g10"><g
       id="g12" /><g
       id="g14"><path
         id="path16"
         style="fill:#f5f5f5;fill-opacity:1;fill-rule:nonzero;stroke:none"
         d="M 0.5399995,16.14 H 12.02 V 30.86 H 0.5399995 Z" /><g
         transform="matrix(1,0,0,-1,0.5,47.5)"
         id="g18"><path
           id="path20"
           style="fill:none;stroke:#f5f5f5;stroke-width:1;stroke-linecap:round;stroke-linejoin:round;stroke-miterlimit:10;stroke-dasharray:none;stroke-opacity:1"
           d="M 0.03999949,16.64 H 11.519999 V 31.36 H 0.03999949 Z" /></g><g
         transform="matrix(1,0,0,-1,0.5,47.5)"
         id="g22"><path
           id="path24"
           style="fill:none;stroke:#f5f5f5;stroke-width:3;stroke-linecap:round;stroke-linejoin:round;stroke-miterlimit:10;stroke-dasharray:none;stroke-opacity:1"
           d="m 31,10 c 0,0 6,5 6,14 -2e-5,9 -6,14 -6,14" /></g><g
         transform="matrix(1,0,0,-1,0.5,47.5)"
         id="g26"><path
           id="path28"
           style="fill:none;stroke:#f5f5f5;stroke-width:3;stroke-linecap:round;stroke-linejoin:round;stroke-miterlimit:10;stroke-dasharray:none;stroke-opacity:1"
           d="m 37,5 c 0,-0.125 7.99999,8 8,19 0,11 -8,19 -8,19" /></g><path
         id="path30"
         style="fill:#f5f5f5;fill-opacity:1;fill-rule:nonzero;stroke:none"
         d="M 21.72792,41.50002 V 5.955883 L 3.955853,23.72795 Z" /><g
         transform="matrix(1,0,0,-1,0.5,47.5)"
         id="g32"><path
           id="path34"
           style="fill:none;stroke:#f5f5f5;stroke-width:1;stroke-linecap:round;stroke-linejoin:round;stroke-miterlimit:10;stroke-dasharray:none;stroke-opacity:1"
           d="M 21.22792,5.999981 V 41.54412 L 3.455853,23.77205 Z" /></g><g
         transform="matrix(1,0,0,-1,0.5,47.5)"
         id="g36"><path
           id="path38"
           style="fill:none;stroke:#f5f5f5;stroke-width:3;stroke-linecap:round;stroke-linejoin:round;stroke-miterlimit:10;stroke-dasharray:none;stroke-opacity:1"
           d="M 5,44 43,4" /></g></g></g></svg>